<?xml version="1.0" encoding="utf-8"?>
<!-- Generator: Adobe Illustrator 27.1.1, SVG Export Plug-In . SVG Version: 6.00 Build 0)  -->
<svg version="1.1" id="Layer_1" xmlns="http://www.w3.org/2000/svg" xmlns:xlink="http://www.w3.org/1999/xlink" x="0px" y="0px"
	 viewBox="0 0 367.1 343.2" style="enable-background:new 0 0 367.1 343.2;" xml:space="preserve">
<style type="text/css">
	.st0{fill:#DFDFDF;}
	.st1{fill:#040404;}
	.st2{fill:#F4F4F4;}
	.st3{fill:#010101;}
	.st4{fill:#0E0E0E;}
	.st5{fill:#676767;}
	.st6{fill:#7D7D7D;}
	.st7{fill:#030303;}
	.st8{fill:#0B0B0B;}
	.st9{fill:#8A8A8A;}
	.st10{fill:none;}
	.st11{fill:#FCFCFC;}
	.st12{fill:#5F5F5F;}
	.st13{fill:#505050;}
	.st14{fill:#0D0D0D;}
	.st15{fill:#858585;}
	.st16{fill:#020202;}
	.st17{fill:#D5D5D5;}
	.st18{fill:#9B9B9B;}
	.st19{fill:#484848;}
	.st20{fill:#FFFFFF;}
</style>
<path class="st0" d="M110.7,120.2c0,0-6.7,6.2-14,20c-1.4,2.6,0.6,4.2-9.5,2.2c-10.9-2.1-16.2-2.6-18.9-2.9
	c-4.2-0.4-3.2-0.8-5.4,2.3c-2.2,3.1,14.3,8.1,12.1,10c-2.2,1.9-24.4-2.2-29.7,1.6c-5.3,3.8-15.6,1.3-4.7,8.2s26.1,6.3,30.9,11.8
	s-8.2,3.5-8.5,8.2c-0.3,4.7,4,5.2,6.2,8.8s-12.1,2.2-11.8,9.7S69,208,71.1,211.4c2.1,3.4-17.5,3.8-10.6,11.5
	c6.9,7.7,26.2,6.2,27.1,6.8c0.9,0.6,46.8,15.9,46.8,15.9l24.1-18.8l7.7-9.4l8.8-15.9l6.5-21.5l14.7-11.2l-4.4-5.9l-15-0.3L160,159
	l25.3-2.7l4.1,0.5c0,0,3.2-4.8,0.1-9.7c-3.1-4.9-4-3.8-7.1-3.6c-3.1,0.2-3.5,1.8-5.9,2.7c-2.4,0.9-3.3-0.5-6.9-1.6s-6.1-1.4-6.1-1.4
	l-2.9-0.4c0,0-1.3,1.7-6.8-0.2c-5.4-1.9-5.2-3.7-8-7.4s-5.4-7.2-7.5-10.5c-1.7-2.6-0.7-4-6-4s-13.4,0.7-15.2-0.1
	S114.6,118.9,110.7,120.2z"/>
<g>
	<path class="st1" d="M197.4,212.5c-2.5,2.4-6.3,5.9-8.9,8.3c0.3,0.3,0.6,0.8,0.9,1.3c-2.4-2.1-4.7-4.1-7.1-6.2
		c-4-3.6-7.9-7.2-11.8-10.9c-0.6-0.6-0.7-1.8-1-2.8c0.4-0.8,0.9-1.5,1.3-2.3c1-2,2.5-5.9,3.5-7.9c0.9,0.2,1.5,1.9,2.1,2.5
		c6.2,5.6,12.3,11.3,18.4,17C195.4,212.1,197,211.8,197.4,212.5z"/>
	<path class="st2" d="M285.5,74.5c-0.1-1.3-0.2-2.6-0.4-3.9c-2.4-14.1-8.6-26.7-16-38.7c-1.4-2.2-3-4.2-4.7-6.2
		c-0.5-0.6-1.6-0.9-2.3-0.8c-0.3,0-0.7,1.2-0.8,1.9c-0.3,2.3-0.4,4.5-0.5,6.8c-0.4,14.6,0.2,29.1,5.3,43.1
		c2.3,6.3,4.7,12.5,9.6,17.3c2.1,2.1,3.8,1.9,4.9-0.7C283.3,87.4,285.8,81.3,285.5,74.5z"/>
	<path class="st3" d="M154,126.9c-0.2-1.3-0.6-2.6-0.6-4c0-8.1-3.1-15-7.9-21.1c-8.1-10.4-19.2-14.7-32.1-15.2
		c-6.4-0.3-12.9-0.8-19.3-0.6c-10,0.3-19.8,2-28.2,8c-9.2,6.5-14.1,15.7-15.8,26.7c-0.3,2.2-0.7,4.4-1,6.6
		c-3.5-13.6,1.5-25.1,8.5-36.4c4.1-6.7,9.5-12,16.1-16.1c7.6-4.9,15.9-7.7,25-8c9.6-0.4,18.8,1.2,27.4,5.7
		c11.4,6,19.2,15.2,24.8,26.6c3.8,7.7,4.8,15.9,4.3,24.4C155.1,124.6,154.4,125.7,154,126.9z"/>
	<path class="st4" d="M168.4,148.3c-4.2,0.6-8.7-1.7-7.8-5.3c0.6-2.5,3.9-3.6,6-4.7c0.8,1,1.5,2,2.3,3c0.2,1.2,0.5,2.3,0.7,3.5
		C169.2,145.9,168.8,147.1,168.4,148.3z"/>
	<path class="st5" d="M168.9,141.2c-0.8-1-1.5-2-2.3-3c2.7-0.1,5.6-0.8,8,0c4.9,1.7,9.5,4.1,14,6.7c1.2,0.7,1.8,3.1,2,4.7
		c0.3,2.5,0,5.1,0,7.7c-0.4-0.2-0.8-0.3-1.3-0.5c0.1-2.1,0.5-4.3,0.4-6.4c-0.2-4.5-2.5-6.6-7.4-6.8c-0.3,1.8-0.9,3.4-3.3,2.9
		c-0.3-1.2-0.3-2.5-0.9-3.6c-0.5-1-1.6-1.8-2.4-2.6c-0.4,0.5-0.8,1-1.1,1.5c-0.1,0-0.2,0.1-0.3,0.1c-1.1-0.8-2.1-1.9-3.4-2.4
		C170.6,139.3,169.6,140.6,168.9,141.2z"/>
	<path class="st6" d="M57.6,141.6c-0.5,0.2-0.8-0.1-1.2-0.2c-3.7-3.6-7-8.8-7.3-14.2c0.3-2.2,0.7-4.4,1-6.6c-0.4,5.7,0,11.2,3.5,16
		C54.7,138.1,56.5,140.3,57.6,141.6z"/>
	<path class="st7" d="M97,205.4c-0.7-1.9-1.2-3.8-1.5-5.7c-1.5-10.6,5.3-20.9,14.6-25.5c6.1-3,13-3.9,19.4-1.7
		c11.8,4,20.1,16,18.2,28.7c-1.9,12.5-13.2,21.9-25.9,22.4C110.7,223.9,100.8,215.6,97,205.4z M122.2,180.2
		c-9.8-0.9-18.1,7.1-18.1,16.9c0,10.1,7.9,18.2,17.7,18.1c9.2-0.1,17.9-7,17.8-16.8C139.5,187.1,132.9,180.1,122.2,180.2z"/>
	<path class="st8" d="M110.7,120.2c0.5-1.6,0.9-3.2,1.4-4.7c0.9-2.9,1.6-5.9,2.9-8.7c2.8-6,13.4-5.6,16.3,0.6
		c1.4,2.9,2.2,6.1,2.8,9.3c0.5,2.2,0.8,4.1,2.9,5.5c0.7,0.5,0.9,1.8,1.3,2.8c-2.1-3.6-5.3-3.6-9-3.4c-5.1,0.4-10.2,0.1-15.4-0.1
		C112.9,121.4,111.8,120.6,110.7,120.2z M128.7,116.6c1.1-5.3-0.1-8.8-3.1-10c-3.4-1.3-6.1,0.2-8.9,5.3c1.2,0.2,1.8,0.1,2.7,0
		c2.4-0.2,5.1,0.2,6.8,1.9C127.1,114.7,127.6,115.5,128.7,116.6z"/>
	<path class="st0" d="M179.1,146.4c2.4,0.6,3-1.1,3.3-2.9c4.8,0.2,7.1,2.3,7.4,6.8c0.1,2.1-0.2,4.3-0.4,6.4
		c-1.6-1.9-2.6-2.9-4.8-3.7c0.8-2.8-0.6-3.9-3.3-4c-1.8-0.1-3.5-0.5-5.2-0.7C177.1,147.7,178.1,147.1,179.1,146.4z"/>
	<path class="st9" d="M83.8,186.8c-0.2,4.2-0.3,8.4-0.5,12.6c0.6,4,1.1,7.9,1.7,11.9c-0.6-1.2-1.4-2.3-1.7-3.6
		c-2.3-9.9-1-19.7,0.7-29.4c0.9-5.2,2.2-10.3,3.4-15.5c1-2.5,1.9-5.1,2.9-7.6c0.3,0.1,0.5,0.2,0.8,0.3
		C87,165.5,85.2,176.1,83.8,186.8z"/>
	<g>
		<path class="st10" d="M148.2,159.1c0.1-0.3,0.1-0.6,0-0.8C148.3,158.6,148.3,158.9,148.2,159.1z"/>
		<path class="st10" d="M85,162.6c-0.3-0.2-0.5-0.7-0.3-1.7c0-0.2,0.1-0.4,0.1-0.6c-0.1,0.2-0.2,0.4-0.2,0.5
			C84,162.1,84.4,162.5,85,162.6z"/>
		<path class="st10" d="M84.9,142.6c0.8,0.3,1.6,0.6,2.4,0.9c1.3,1.1,2.6,2.1,4.3,3.6c-0.1,0.4-0.4,1.3-0.8,2.1
			c-0.1,0.1-0.2,0.3-0.2,0.4c0.1-0.1,0.2-0.3,0.3-0.4c0.6-0.7,0.7-1.7,0.8-2.1c-1.7-1.4-3-2.5-4.3-3.6c1.5,0.2,2.7,0.4,3.6,0.5
			c-1-0.3-2.2-0.6-3.8-1C86.6,143,85.8,142.8,84.9,142.6z"/>
		<path class="st10" d="M140.5,165c4.4-1.5,6.6-4.7,6.8-9.6c-0.2-0.7-0.5-1.5-1-2c0-0.2-1.3-1.8-1.3-2c-1.9-1.9-2.8-3.3-5.1-4.5
			c2.2,1.3,3.8,3.7,5.7,5.6c-6.3-0.6-12.7-1.3-19-1.7c-5.5-0.3-11-0.1-16.5-0.3c-3.1-0.1-7.2,2-8.4,4.7c-1.2,2.6-0.3,4.8,3,7.7
			c0.7,0.6,1.4,1.7,2.2,1.8c4.3,0.6,8.6,1,12.9,1.4c3.6,0.3,7.1,0.6,10.7,0.9c-8.3-0.2-16.5-0.3-24.8-0.6c8.2,0.3,16.5,0.4,24.8,0.6
			c2-0.2,4-0.4,6.1-0.5c0.3,0.4,0.6,0.9,0.8,1.3c-0.2-0.4-0.4-0.9-0.8-1.3C137.9,165.9,139.2,165.5,140.5,165z"/>
		<path class="st11" d="M119.8,166.1c-4.3-0.4-8.6-0.8-12.9-1.4c-0.8-0.1-1.5-1.2-2.2-1.8c-3.3-2.9-4.2-5-3-7.7
			c1.2-2.7,5.2-4.8,8.4-4.7c5.5,0.2,11,0,16.5,0.3c6.3,0.4,12.7,1.1,19,1.7c-1.9-1.9-3.4-4.3-5.7-5.6c-10.8-6.3-22-6.3-33.3-1.6
			c-5.6,2.3-8.2,7.2-7.8,13.2c0.3,4.1,3.5,7.7,6.9,7.8c8.2,0.3,16.5,0.4,24.8,0.6C127,166.6,123.4,166.4,119.8,166.1z"/>
		<path class="st12" d="M87.2,143.1c1.6,0.4,2.8,0.7,3.8,1c3.3,1,3.2,1.7,1.5,5.9c0,0.1,0.1,0.3,0.3,0.5c2.3-5.4,4.6-10.7,6.9-16
			c-0.6,0.6-1.2,1.2-1.9,1.8c-0.6,0.5-1.2,0.9-1.9,1.3c-0.6,0.4-1.1,0.8-1.8,1c-0.3,0.1-0.9,0.2-1,0.6c0,0.3,1.4,1.4,3.4,0.5
			c-1.5,1.4-2.7,3.4-3.4,3.2c-3.6-0.9-6.9-2.5-10.6-3.2c-1.2-0.2-3.1-0.3-4.3-0.2c-1,0.1-2.4,0.1-3.2,0.1c-2.8-0.1-4.1,0-6.9-0.2
			c1.2,0.4,2.5,0.9,3.8,1.1c4.1,0.7,7.1,0.6,11.1,1.6c0.3,0.1,0.6,0.2,1,0.2c0.3,0.1,0.5,0.1,0.8,0.2
			C85.8,142.8,86.6,143,87.2,143.1z"/>
	</g>
	<path class="st13" d="M168.4,148.3c0.4-1.2,0.8-2.3,1.3-3.5c0.7-0.8,1.3-2,2.2-2.1c0.6-0.1,1.5,1.1,2.5,2c0-1.1,0-1.9,0-2.8
		c0.1,0,0.2-0.1,0.3-0.1c-0.1,2.2-0.1,4.4-0.2,6.5C172.4,148.3,170.4,148.3,168.4,148.3z"/>
	<path class="st14" d="M174.5,148.3c0.1-2.2,0.1-4.4,0.2-6.5c0.4-0.5,0.8-1,1.1-1.5c0.8,0.9,1.9,1.6,2.4,2.6
		c0.6,1.1,0.6,2.4,0.9,3.6c-1,0.6-2,1.3-3,1.9C175.6,148.3,175,148.3,174.5,148.3z"/>
	<path class="st15" d="M156.6,164.5c-0.1-0.6,0.3-1.3,0.5-1.9c-0.4-0.3-0.9-0.7-1.3-1c-0.4-1.4-0.8-2.9-1.2-4.3
		c-0.5-0.2-1.2-0.4-1.5-0.8c-1.1-1.7-2.1-3.4-3.1-5.1c-0.2,0.1-0.3,0.2-0.5,0.3c1.9,4.5,3.8,9,5.7,13.4c1.2,5,2.4,10.1,3.5,15.1
		c0.2,0,0.4-0.1,0.6-0.1c0-0.8,0-1.6,0-2.4C158.5,173.4,157.5,169,156.6,164.5z"/>
	<path class="st16" d="M83.2,138.1c-1,0.2-2.1,0.2-3-0.1c-5.3-2-7.5-8-9.2-13.5c-2.4-7.6-1-14.3,3.9-20.4c3.4-4.3,12.8-4.5,16.1,3.2
		c3.2,7.5,3.6,21.4-4.7,29.1C85.4,137.1,84.3,137.8,83.2,138.1z M73.5,113.3c0.1,0.9,0.6,2,1,2.4c4.7,4,11.5,4.8,14.9,0.2
		c0.8-1.1,0.6-2.3,0.3-3.1c-1.1-3.3-1.8-7.2-6.3-7.8c-5.1-0.6-7.2,0.8-9.4,6.2C73.6,112,73.4,112.5,73.5,113.3z"/>
	<path class="st17" d="M174.3,141.8c0,0.8,0,1.7,0,2.8c-1-0.9-1.9-2.1-2.5-2c-0.8,0.2-1.5,1.4-2.2,2.1c-0.2-1.7-0.5-2.3-0.7-3.5
		c0.7-0.6,1.7-1.9,2-1.8C172.2,139.9,173.2,141,174.3,141.8z"/>
	<path class="st18" d="M122.2,180.2c10.7,0,17.2,7,17.4,18.2c0.1,9.8-8.6,16.7-17.8,16.8c-9.8,0.1-17.7-8-17.7-18.1
		C104.2,187.3,112.4,179.3,122.2,180.2z M122,183.1c-8.7,0-14.8,6.2-14.6,14.7c0.1,7.8,6.9,14.3,14.9,14.1c8.6-0.2,14-6.3,14.3-13.9
		C136.9,190.2,130.4,182.7,122,183.1z"/>
	<path class="st19" d="M122,183.1c8.5-0.5,14.9,7.1,14.6,14.9c-0.3,7.7-5.8,13.7-14.3,13.9c-8,0.2-14.8-6.4-14.9-14.1
		C107.2,189.3,113.3,183.1,122,183.1z"/>
</g>
<path d="M208.5,187.7c0.5-11.9-6.3-22.9-17.9-30.3c-0.4-0.2-0.8-0.8-1.2-1c-1.6-1.2-2.9-2.7-4.8-3.2c-1.2-0.3-3.7-0.4-4.9-0.5
	c-6.1-0.5-10.3-0.6-16.1,0.6c-2.9,0.8-5.9,1.7-9,2.6c0,0.2,0,0.9,0,1.5c0.4,1.4,0.8,2.9,1.2,4.3c0.4,0.3,0.9,0.7,1.3,1
	c8.5,5.5,17.5,7.6,27.2,3.2c1.2-0.6,2.8-0.9,4.1-0.8c1.3,0.2,3.3,0.5,3.7,1.9c0.4,1.4-1.1,3-2.1,3.6c-7.2,4.1-14.2,4.9-15.2,14
	c-3.7,33.7-40.9,69.2-74.9,46.9c-3.9-2.6-7.1-6.2-10.6-9.4c-1.8,0-3.5,0.1-5.3-0.1c-3.6-0.4-7.2-1.1-10.8-1.5
	c-1.2-0.2-2.5-0.1-3.7-0.2c0-0.3-0.1-0.5-0.1-0.8c1.4-0.7,2.7-1.4,4.1-2c0.9-0.4,2-0.5,2.8-1c1.4-1.1,3.9-1.9,3.9-3.7
	c0-1.6-2.3-2.4-3.6-3.2c-4.2-2.5-8.5-4.8-13.1-7.4c2.5-0.3,4.4-0.6,6.4-0.8c5.1-0.6,6.9-3.2,5.6-8.1c-0.1-0.2-0.1-0.4-0.1-0.6
	c-0.6-4.3-1.6-8.3-7.4-8.7c0.2-0.3,0.3-0.5,0.5-0.8c4.4,0.4,10.1,4.4,13.6,1.2c2.1-1.9,0.2-5.4-0.1-7.9c-0.2-1.3-1.1-2.9-2.2-3.6
	c-7.7-5-15.8-8.8-25.2-9.2c-2.6-0.1-5.2-0.4-7.6-1.2c-1.3-0.4-3.4-1.6-3.3-3.2c0.1-1.5,2.2-2.5,3.4-2.7c3.3-0.6,6.7-0.8,10.1-0.8
	c6.2-0.1,12.4-0.4,17.9-3.8c0.8-0.5,1.8-1.5,1.7-2.1c-0.2-0.9-1.1-1.8-1.9-2.3c-2.6-1.4-5.4-2.6-8.1-3.9c-1.8-0.8-3.3-1.6-5.3-1.7
	c-1.8-0.2-3.7,0-5.5,0.4c-2.8,0.6-5.4,1.7-8,2.9c-11.8,5.3-22.9,11.3-29.9,22.6c-4.2,6.8-6.6,14.3-5.3,22.2
	c1.7,11.4,7.2,20.8,17.1,27.2c0.6,0.4,1.4,1,1.5,1.7c1.1,3.7,2,7.5,3,11.3c2.5,6.2,4.5,12.6,7.6,18.5c4.6,8.9,11.2,16.2,20.7,20.4
	c8.9,3.9,18.4,4.7,27.9,5.5c6.4,0.5,12.8,0,19.2,0.1c11.8,0.1,23.1-2.2,34.2-6.1c13.2-4.6,23.9-16.9,31.9-27.4
	c10.1-13.4,19.5-23.2,28-37.7C206.8,198,208.3,192.7,208.5,187.7z"/>
<g>
	<path class="st15" d="M269.7,142.9c-0.7,1.2-1.4,2.5-2,3.7c-0.7,0.2-1.4,0.4-2.1,0.6C238,135.6,218,86.1,224.8,57.8
		C245.9,79.2,275.9,110.8,269.7,142.9z"/>
	<path class="st15" d="M217.8,278.7c-0.5,1.3-1.1,2.6-1.6,3.9c-0.7,0.3-1.3,0.6-2,0.9c-28.7-8.5-54-55.5-50.4-84.4
		C187.1,218.1,220.4,246.2,217.8,278.7z"/>
	<path class="st15" d="M251.9,224.6c0.1,1.4,0.2,2.8,0.3,4.2c-0.5,0.6-0.9,1.1-1.4,1.7c-29.5,5.3-73.1-25.4-82.9-52.8
		C197.2,184.2,239.6,194.3,251.9,224.6z"/>
	<path class="st15" d="M257.3,205.4c-0.6,1.4-1.1,2.7-1.7,4.1c-0.7,0.3-1.4,0.6-2,0.9c-28.7-9.7-53.4-59.8-49.3-90.1
		C227.4,140.8,260.5,171.2,257.3,205.4z"/>
	<path class="st15" d="M245.7,259.8c-1.2-0.8-2.4-1.7-3.6-2.5c-0.1-0.7-0.3-1.4-0.4-2.1c18.5-29.2,72.7-30,99.7-24.3
		C344,231.5,280.3,270.8,245.7,259.8z"/>
	<path class="st15" d="M210.9,296c-0.8-1.2-1.6-2.4-2.5-3.6c0.1-0.7,0.3-1.4,0.4-2.1c27.8-20.6,66.3-5.7,89.4,9.4
		C300.5,301.2,239.2,318.7,210.9,296z"/>
	<path class="st15" d="M281.9,94.8c-0.6,1-1.1,2-1.7,2.9c-0.5,0.1-0.9,0.2-1.4,0.4c-16.3-12-23.8-55.3-16.5-78.6
		C273.5,39.3,289.3,68.3,281.9,94.8z"/>
	<path class="st15" d="M288,64.2c0.1,0.8,0.2,1.6,0.4,2.4c0.4,0.3,0.7,0.6,1.1,0.9c18.9,1.2,41.9-19.2,44.5-35.6
		C316.6,37.5,291.7,46,288,64.2z"/>
	<path class="st15" d="M278,104.1c0.1,1,0.3,1.9,0.4,2.9c0.5,0.4,0.9,0.8,1.4,1.2c25.7,1.7,53.7-14.9,57-33.3
		C314.6,78.3,282.8,83.9,278,104.1z"/>
	<path class="st15" d="M259.4,173c0.2,1.3,0.4,2.6,0.6,4c0.7,0.6,1.3,1.3,2,1.9c34.7,11,103.7-38.5,85.4-36.5
		C349.1,142.2,275.2,141.6,259.4,173z"/>
</g>
<path class="st20" d="M105.8,166.3c3,0.3,25.7,0.9,30.8,0.1s10.2-3.1,10.7-11c0.5-7.8-14.8-13.3-24.4-13.9s-24.1,4.3-24.4,13.5
	C98.2,164.4,105.8,166.3,105.8,166.3z"/>
<path class="st15" d="M133.8,162.2h-24.1c-3.2,0-5.7-2.6-5.7-5.7v0c0-3.2,2.6-5.7,5.7-5.7h24.1c3.2,0,5.7,2.6,5.7,5.7v0
	C139.5,159.6,136.9,162.2,133.8,162.2z"/>
<g>
	<path class="st15" d="M183.9,316.1c-0.2,0-0.5-0.1-0.7-0.2c-0.7-0.4-1-1.3-0.7-2c3.2-6.3,10.5-21.1,31.8-31
		c16.3-7.6,17.4-9.9,23.5-23.1c1.2-2.7,2.7-5.7,4.4-9.3c10.9-22,14.3-48.1,16.3-73.2c1.3-15.4,4.7-25.8,8.8-37.8
		c2.8-8.2,5.6-16.7,8.1-27.9l0.8-3.7c5.5-24.5,6.3-27.6,11.7-42.9c0.3-0.8,1.1-1.2,1.9-0.9c0.8,0.3,1.2,1.1,0.9,1.9
		c-5.4,15.1-6.1,18.2-11.6,42.5l-0.8,3.7c-2.6,11.4-5.6,20.3-8.2,28.2c-4,11.8-7.4,22.1-8.6,37.1c-2.1,25.3-5.5,51.9-16.6,74.3
		c-1.8,3.6-3.2,6.6-4.4,9.2c-6.4,13.6-7.7,16.5-25,24.5c-20.3,9.5-27.3,23.6-30.4,29.6C185,315.8,184.5,316.1,183.9,316.1z"/>
</g>
</svg>
