<?xml version="1.0" encoding="UTF-8" standalone="no"?>
<!-- Generator: Adobe Illustrator 27.0.0, SVG Export Plug-In . SVG Version: 6.00 Build 0)  -->

<svg
   version="1.1"
   id="Layer_2"
   x="0px"
   y="0px"
   viewBox="0 0 744 748"
   style="enable-background:new 0 0 744 748;"
   xml:space="preserve"
   sodipodi:docname="whale_misty.svg"
   inkscape:version="1.2.1 (9c6d41e410, 2022-07-14)"
   xmlns:inkscape="http://www.inkscape.org/namespaces/inkscape"
   xmlns:sodipodi="http://sodipodi.sourceforge.net/DTD/sodipodi-0.dtd"
   xmlns="http://www.w3.org/2000/svg"
   xmlns:svg="http://www.w3.org/2000/svg"><defs
   id="defs15" /><sodipodi:namedview
   id="namedview13"
   pagecolor="#ffffff"
   bordercolor="#000000"
   borderopacity="0.25"
   inkscape:showpageshadow="2"
   inkscape:pageopacity="0.0"
   inkscape:pagecheckerboard="0"
   inkscape:deskcolor="#d1d1d1"
   showgrid="false"
   inkscape:zoom="1.5389971"
   inkscape:cx="322.2878"
   inkscape:cy="420.07876"
   inkscape:window-width="3200"
   inkscape:window-height="1721"
   inkscape:window-x="2391"
   inkscape:window-y="-9"
   inkscape:window-maximized="1"
   inkscape:current-layer="Layer_2" />
<style
   type="text/css"
   id="style2">
	.st0{fill:none;stroke:#000000;stroke-width:2;stroke-miterlimit:10;}
</style>
<path
   class="st0"
   d="m 52.632432,377.25405 c 4.2,1.8 8,3.5 11.8,5.1 7.1,3.1 14.3,4 21.9,1.5 5.2,-1.8 10.6,-2.9 15.899998,-4.2 17.1,-4 29.5,3.1 39.1,16.6 3.6,5.1 6.6,10.7 10.3,16.8 0.5,-3.3 1,-6 1.4,-8.7 3.9,-26.8 19.9,-41.6 47,-43.9 11.2,-0.9 21.4,-4.1 25.8,-16.1 0.5,0.1 1,0.1 1.1,0.3 8.3,19.7 10.4,39.5 -2.1,58.2 -8.9,13.3 -23,19.9 -37.7,25 -3.4,1.2 -7.1,2.1 -10.7,2.6 -3,0.4 -4.4,1.7 -4.8,4.6 -2.5,21.3 -3.3,42.6 3.3,63.4 8.7,27.3 28.6,42 57.1,44.5 27.6,2.4 49.3,-8.7 66.6,-28.6 14.3,-16.4 27.2,-34.1 40.2,-51.6 14.5,-19.4 29.2,-38.5 47.9,-54.1 24.8,-20.6 53.2,-31.7 85.5,-33.4 36.1,-1.9 69.7,5.5 99.8,25.9 39.4,26.7 62.3,64.3 69.9,111 7.9,48.7 -4.2,92.6 -35.8,130.7 -19.6,23.5 -44.5,40 -72.4,52 -33.4,14.3 -68.4,21.9 -104.7,24.2 -48.1,3.1 -94.8,-3.6 -139.6,-21.5 -49,-19.6 -88.9,-50.8 -117.5,-95.5 -20.2,-31.5 -32.4,-66.1 -37.5,-103 -2.5,-17.8 -3.1,-35.8 -4.1,-53.7 -0.3,-5 -1.9,-5.4 -6.3,-5.1 -22.8,1.1 -43.399998,-4 -58.999998,-22.1 -8.8,-10 -14.1,-27.7 -12.4,-40.9 z m 469.499998,125.7 c -1,-9.3 -5,-18.5 -15.1,-23.8 -9,-4.7 -17.7,0.1 -18.9,10.2 -1.2,10.1 2.2,18.7 9.5,25.6 4.7,4.4 10.1,7.5 16.7,4.5 6.4,-2.8 7.8,-8.7 7.8,-16.5 z m 51.3,133.8 c 10.9,-2 21.9,-3.9 32.7,-6.2 1.5,-0.3 2.5,-2.8 3.7,-4.3 -1.8,-0.8 -3.6,-1.8 -5.5,-2.2 -1,-0.2 -2.2,0.6 -3.4,0.8 -10.7,1.4 -21.4,3.9 -32,3.8 -22.4,-0.1 -40.3,-9.8 -51.6,-29.6 -4.4,-7.7 -6.8,-16.6 -10.5,-24.7 -0.7,-1.6 -3.4,-2.3 -5.1,-3.4 -0.6,1.6 -2.1,3.4 -1.8,4.8 8.3,37.2 36,59.7 73.5,61 z"
   id="path4"
   sodipodi:nodetypes="cccccccccccccccccccsccccccccccccccscccccccccccccc"
   style="stroke-width:6;stroke-dasharray:none" />
<path
   class="st0"
   d="M224.7,82.7c5.8-11.4,10.9-23.4,20.7-32.1c8.5-7.5,17.5-14.5,26.8-21c11.3-7.9,24.7-10.7,37.7-14  c11.1-2.9,22.4-4.6,33.9-3.8c12.7,0.9,24.8,4.1,36.4,9.2c13.1,5.8,23.7,14.6,33.6,25c14.9,15.6,24.8,33.8,33.7,53  c7.8,16.7,13.1,34.1,17.5,51.8c4.8,19.5,10,38.9,11.7,59c0.6,6.7,2.3,13.3,3,20.1c1.5,15.3,3.2,30.6,3.8,45.9  c1.1,27.3,1.5,54.5,1.9,81.8c0,2.8-2,5.6-3,8.5c-1.5-2.5-3.6-4.7-4.5-7.4c-2.4-7.4-4.2-15.1-6.3-22.6c-8-28.5-15.9-57.1-29.6-83.6  c-15.2-29.5-41.4-42.9-73.8-37.5c-22.3,3.7-44.6,5.4-67,1.8c-20-3.2-38.2-10.4-52.1-26c-9.3-10.5-15.3-23-20.5-35.8  c-6.8-16.9-10.6-34.4-7.9-52.7C221.8,95.6,223.4,89.2,224.7,82.7z"
   id="path6"
   style="stroke-width:6;stroke-dasharray:none" />
<path
   class="st0"
   d="M555.7,292.7c-14.9,6.8-26.6,17.9-37.9,29.2c-4,4-7.3,9-10.2,14c-4.5,7.9-8.4,16.1-12.7,24.1  c-1.1,2-2.7,3.7-4.1,5.6c-0.1-1.6-0.5-3.2-0.2-4.8c6-35.9,16-70.6,30.6-104c0.8-1.8,1.1-3.8,1.6-5.7c4.7-8.2,9.6-16.3,14-24.7  c7.2-13.7,16.9-25,28.5-35.4c14.7-13.1,30.9-23,50.1-25.7c19.2-2.7,38.3-1.3,55.2,11.1c8,5.9,14.8,12.8,19.3,21.2  c8.7,16.2,13.7,33.2,8.8,52.4c-2.9,11.6-9.5,20.4-16.3,29.2c-3.3,4.3-9.5,6.3-14.4,9.4c-1.1,0.2-2.3,0.2-3.4,0.6  c-13.5,4.6-27.3,5.7-41.3,3.5c-10.3-1.6-20.5-4.1-30.9-5.5C579.7,285.5,567.2,286.5,555.7,292.7z"
   id="path8"
   style="stroke-width:6;stroke-dasharray:none" />
<path
   class="st0"
   d="M626.7,106.3c0.2,31.8-19.1,57.8-46,63.8c-5.3,1.2-10.9,1.4-16.3,1.9c-25.1,2.6-41.9,16.8-51.3,39.2  c-6.6,15.6-10.8,32.1-16.1,48.3c-0.6,1.7-0.9,3.7-1.9,5.1c-0.8,1.2-2.4,1.9-3.6,2.8c-0.6-1.4-1.6-2.8-1.6-4.2c0.1-10,0.3-20,0.6-30  c0.7-27.1,0.7-54.3,2.5-81.3c1.4-22.4,6.4-44.2,16.8-64.4c9.7-18.7,23.9-32,45.6-34.2c21.4-2.1,41.7,1.2,57.6,17.7  C622.9,81.5,626.3,94.5,626.7,106.3z"
   id="path10"
   style="stroke-width:6;stroke-dasharray:none" />
</svg>
